<mxfile host="app.diagrams.net" modified="2022-12-29T12:20:42.562Z" agent="5.0 (Windows NT 10.0; Win64; x64) AppleWebKit/537.36 (KHTML, like Gecko) Chrome/108.0.0.0 Safari/537.36" etag="sY4IlFogfLyenErp9reJ" version="20.7.4" type="github">
  <diagram id="C5RBs43oDa-KdzZeNtuy" name="Page-1">
    <mxGraphModel dx="1750" dy="955" grid="1" gridSize="10" guides="1" tooltips="1" connect="1" arrows="1" fold="1" page="1" pageScale="1" pageWidth="827" pageHeight="1169" math="0" shadow="0">
      <root>
        <mxCell id="WIyWlLk6GJQsqaUBKTNV-0" />
        <mxCell id="WIyWlLk6GJQsqaUBKTNV-1" parent="WIyWlLk6GJQsqaUBKTNV-0" />
        <mxCell id="v4sCi-Z_wBpGrxeXx95t-0" value="Start:&amp;nbsp;&lt;br&gt;input parameters" style="ellipse;whiteSpace=wrap;html=1;movable=1;resizable=1;rotatable=1;deletable=1;editable=1;connectable=1;container=0;" vertex="1" parent="WIyWlLk6GJQsqaUBKTNV-1">
          <mxGeometry x="433" y="85" width="136" height="50" as="geometry" />
        </mxCell>
        <mxCell id="v4sCi-Z_wBpGrxeXx95t-1" value="is character in the input message?" style="rhombus;whiteSpace=wrap;html=1;movable=1;resizable=1;rotatable=1;deletable=1;editable=1;connectable=1;container=0;" vertex="1" parent="WIyWlLk6GJQsqaUBKTNV-1">
          <mxGeometry x="417" y="210" width="168" height="100" as="geometry" />
        </mxCell>
        <mxCell id="v4sCi-Z_wBpGrxeXx95t-2" value="" style="edgeStyle=orthogonalEdgeStyle;rounded=0;orthogonalLoop=1;jettySize=auto;html=1;movable=1;resizable=1;rotatable=1;deletable=1;editable=1;connectable=1;" edge="1" parent="WIyWlLk6GJQsqaUBKTNV-1" source="v4sCi-Z_wBpGrxeXx95t-0" target="v4sCi-Z_wBpGrxeXx95t-1">
          <mxGeometry relative="1" as="geometry" />
        </mxCell>
        <mxCell id="v4sCi-Z_wBpGrxeXx95t-3" value="print &lt;b&gt;output message&lt;/b&gt;" style="whiteSpace=wrap;html=1;movable=1;resizable=1;rotatable=1;deletable=1;editable=1;connectable=1;container=0;" vertex="1" parent="WIyWlLk6GJQsqaUBKTNV-1">
          <mxGeometry x="405" y="840" width="192" height="60" as="geometry" />
        </mxCell>
        <mxCell id="v4sCi-Z_wBpGrxeXx95t-4" value="" style="edgeStyle=orthogonalEdgeStyle;rounded=0;orthogonalLoop=1;jettySize=auto;html=1;movable=1;resizable=1;rotatable=1;deletable=1;editable=1;connectable=1;" edge="1" parent="WIyWlLk6GJQsqaUBKTNV-1" source="v4sCi-Z_wBpGrxeXx95t-1" target="v4sCi-Z_wBpGrxeXx95t-3">
          <mxGeometry relative="1" as="geometry">
            <Array as="points">
              <mxPoint x="709" y="260" />
              <mxPoint x="709" y="860" />
            </Array>
          </mxGeometry>
        </mxCell>
        <mxCell id="v4sCi-Z_wBpGrxeXx95t-5" value="&lt;b&gt;&lt;font style=&quot;font-size: 14px;&quot; color=&quot;#ff3333&quot;&gt;False&lt;/font&gt;&lt;/b&gt;" style="text;html=1;strokeColor=none;fillColor=none;align=center;verticalAlign=middle;whiteSpace=wrap;rounded=0;movable=1;resizable=1;rotatable=1;deletable=1;editable=1;connectable=1;container=0;" vertex="1" parent="WIyWlLk6GJQsqaUBKTNV-1">
          <mxGeometry x="585" y="216" width="60" height="30" as="geometry" />
        </mxCell>
        <mxCell id="v4sCi-Z_wBpGrxeXx95t-6" value="&lt;b&gt;&lt;font color=&quot;#009900&quot; style=&quot;font-size: 14px;&quot;&gt;True&lt;/font&gt;&lt;/b&gt;" style="text;html=1;strokeColor=none;fillColor=none;align=center;verticalAlign=middle;whiteSpace=wrap;rounded=0;movable=1;resizable=1;rotatable=1;deletable=1;editable=1;connectable=1;container=0;" vertex="1" parent="WIyWlLk6GJQsqaUBKTNV-1">
          <mxGeometry x="349" y="218" width="60" height="30" as="geometry" />
        </mxCell>
        <mxCell id="v4sCi-Z_wBpGrxeXx95t-7" value="is character in the list of characters?" style="rhombus;whiteSpace=wrap;html=1;movable=1;resizable=1;rotatable=1;deletable=1;editable=1;connectable=1;container=0;" vertex="1" parent="WIyWlLk6GJQsqaUBKTNV-1">
          <mxGeometry x="259" y="290" width="168" height="100" as="geometry" />
        </mxCell>
        <mxCell id="v4sCi-Z_wBpGrxeXx95t-12" style="edgeStyle=orthogonalEdgeStyle;rounded=0;orthogonalLoop=1;jettySize=auto;html=1;exitX=0;exitY=0.5;exitDx=0;exitDy=0;entryX=0.5;entryY=0;entryDx=0;entryDy=0;fontSize=14;fontColor=#009900;movable=1;resizable=1;rotatable=1;deletable=1;editable=1;connectable=1;" edge="1" parent="WIyWlLk6GJQsqaUBKTNV-1" source="v4sCi-Z_wBpGrxeXx95t-1" target="v4sCi-Z_wBpGrxeXx95t-7">
          <mxGeometry relative="1" as="geometry" />
        </mxCell>
        <mxCell id="v4sCi-Z_wBpGrxeXx95t-13" value="encode input message?" style="rhombus;whiteSpace=wrap;html=1;movable=1;resizable=1;rotatable=1;deletable=1;editable=1;connectable=1;container=0;" vertex="1" parent="WIyWlLk6GJQsqaUBKTNV-1">
          <mxGeometry x="260" y="441" width="166" height="100" as="geometry" />
        </mxCell>
        <mxCell id="v4sCi-Z_wBpGrxeXx95t-14" value="" style="edgeStyle=orthogonalEdgeStyle;rounded=0;orthogonalLoop=1;jettySize=auto;html=1;fontSize=14;fontColor=#009900;exitX=0.5;exitY=1;exitDx=0;exitDy=0;movable=1;resizable=1;rotatable=1;deletable=1;editable=1;connectable=1;" edge="1" parent="WIyWlLk6GJQsqaUBKTNV-1" source="v4sCi-Z_wBpGrxeXx95t-7" target="v4sCi-Z_wBpGrxeXx95t-13">
          <mxGeometry relative="1" as="geometry" />
        </mxCell>
        <mxCell id="v4sCi-Z_wBpGrxeXx95t-17" value="encrypt character" style="whiteSpace=wrap;html=1;movable=1;resizable=1;rotatable=1;deletable=1;editable=1;connectable=1;container=0;" vertex="1" parent="WIyWlLk6GJQsqaUBKTNV-1">
          <mxGeometry x="149" y="570" width="120" height="60" as="geometry" />
        </mxCell>
        <mxCell id="v4sCi-Z_wBpGrxeXx95t-18" value="" style="edgeStyle=orthogonalEdgeStyle;rounded=0;orthogonalLoop=1;jettySize=auto;html=1;fontSize=14;fontColor=#009900;exitX=0;exitY=0.5;exitDx=0;exitDy=0;movable=1;resizable=1;rotatable=1;deletable=1;editable=1;connectable=1;" edge="1" parent="WIyWlLk6GJQsqaUBKTNV-1" source="v4sCi-Z_wBpGrxeXx95t-13" target="v4sCi-Z_wBpGrxeXx95t-17">
          <mxGeometry relative="1" as="geometry">
            <mxPoint x="249" y="530" as="sourcePoint" />
          </mxGeometry>
        </mxCell>
        <mxCell id="v4sCi-Z_wBpGrxeXx95t-20" value="decrypt character" style="whiteSpace=wrap;html=1;movable=1;resizable=1;rotatable=1;deletable=1;editable=1;connectable=1;container=0;" vertex="1" parent="WIyWlLk6GJQsqaUBKTNV-1">
          <mxGeometry x="417" y="570" width="120" height="60" as="geometry" />
        </mxCell>
        <mxCell id="v4sCi-Z_wBpGrxeXx95t-21" style="edgeStyle=orthogonalEdgeStyle;rounded=0;orthogonalLoop=1;jettySize=auto;html=1;exitX=1;exitY=0.5;exitDx=0;exitDy=0;entryX=0.5;entryY=0;entryDx=0;entryDy=0;fontSize=14;fontColor=#009900;movable=1;resizable=1;rotatable=1;deletable=1;editable=1;connectable=1;" edge="1" parent="WIyWlLk6GJQsqaUBKTNV-1" source="v4sCi-Z_wBpGrxeXx95t-13" target="v4sCi-Z_wBpGrxeXx95t-20">
          <mxGeometry relative="1" as="geometry" />
        </mxCell>
        <mxCell id="v4sCi-Z_wBpGrxeXx95t-22" value="&lt;b&gt;&lt;font color=&quot;#009900&quot; style=&quot;font-size: 14px;&quot;&gt;True&lt;/font&gt;&lt;/b&gt;" style="text;html=1;strokeColor=none;fillColor=none;align=center;verticalAlign=middle;whiteSpace=wrap;rounded=0;movable=1;resizable=1;rotatable=1;deletable=1;editable=1;connectable=1;container=0;" vertex="1" parent="WIyWlLk6GJQsqaUBKTNV-1">
          <mxGeometry x="209" y="450" width="60" height="30" as="geometry" />
        </mxCell>
        <mxCell id="v4sCi-Z_wBpGrxeXx95t-23" value="&lt;b&gt;&lt;font style=&quot;font-size: 14px;&quot; color=&quot;#ff3333&quot;&gt;False&lt;/font&gt;&lt;/b&gt;" style="text;html=1;strokeColor=none;fillColor=none;align=center;verticalAlign=middle;whiteSpace=wrap;rounded=0;movable=1;resizable=1;rotatable=1;deletable=1;editable=1;connectable=1;container=0;" vertex="1" parent="WIyWlLk6GJQsqaUBKTNV-1">
          <mxGeometry x="417" y="450" width="60" height="30" as="geometry" />
        </mxCell>
        <mxCell id="v4sCi-Z_wBpGrxeXx95t-24" value="&lt;b&gt;&lt;font style=&quot;font-size: 14px;&quot; color=&quot;#ff3333&quot;&gt;False&lt;/font&gt;&lt;/b&gt;" style="text;html=1;strokeColor=none;fillColor=none;align=center;verticalAlign=middle;whiteSpace=wrap;rounded=0;movable=1;resizable=1;rotatable=1;deletable=1;editable=1;connectable=1;container=0;" vertex="1" parent="WIyWlLk6GJQsqaUBKTNV-1">
          <mxGeometry x="417" y="300" width="60" height="30" as="geometry" />
        </mxCell>
        <mxCell id="v4sCi-Z_wBpGrxeXx95t-26" value="&lt;b&gt;&lt;font color=&quot;#009900&quot; style=&quot;font-size: 14px;&quot;&gt;True&lt;/font&gt;&lt;/b&gt;" style="text;html=1;strokeColor=none;fillColor=none;align=center;verticalAlign=middle;whiteSpace=wrap;rounded=0;movable=1;resizable=1;rotatable=1;deletable=1;editable=1;connectable=1;container=0;" vertex="1" parent="WIyWlLk6GJQsqaUBKTNV-1">
          <mxGeometry x="279" y="390" width="60" height="30" as="geometry" />
        </mxCell>
        <mxCell id="v4sCi-Z_wBpGrxeXx95t-30" style="edgeStyle=orthogonalEdgeStyle;rounded=0;orthogonalLoop=1;jettySize=auto;html=1;exitX=0.5;exitY=1;exitDx=0;exitDy=0;entryX=0.25;entryY=0;entryDx=0;entryDy=0;entryPerimeter=0;fontSize=14;fontColor=#009900;movable=1;resizable=1;rotatable=1;deletable=1;editable=1;connectable=1;" edge="1" parent="WIyWlLk6GJQsqaUBKTNV-1" source="v4sCi-Z_wBpGrxeXx95t-27" target="v4sCi-Z_wBpGrxeXx95t-1">
          <mxGeometry relative="1" as="geometry">
            <Array as="points">
              <mxPoint x="343" y="780" />
              <mxPoint x="119" y="780" />
              <mxPoint x="119" y="190" />
              <mxPoint x="459" y="190" />
            </Array>
          </mxGeometry>
        </mxCell>
        <mxCell id="v4sCi-Z_wBpGrxeXx95t-27" value="add character to the &lt;b&gt;output message&lt;/b&gt;" style="whiteSpace=wrap;html=1;movable=1;resizable=1;rotatable=1;deletable=1;editable=1;connectable=1;container=0;" vertex="1" parent="WIyWlLk6GJQsqaUBKTNV-1">
          <mxGeometry x="283" y="675" width="120" height="60" as="geometry" />
        </mxCell>
        <mxCell id="v4sCi-Z_wBpGrxeXx95t-16" value="" style="edgeStyle=orthogonalEdgeStyle;rounded=0;orthogonalLoop=1;jettySize=auto;html=1;fontSize=14;fontColor=#009900;entryX=1;entryY=0.75;entryDx=0;entryDy=0;exitX=1;exitY=0.5;exitDx=0;exitDy=0;movable=1;resizable=1;rotatable=1;deletable=1;editable=1;connectable=1;" edge="1" parent="WIyWlLk6GJQsqaUBKTNV-1" source="v4sCi-Z_wBpGrxeXx95t-7" target="v4sCi-Z_wBpGrxeXx95t-27">
          <mxGeometry relative="1" as="geometry">
            <mxPoint x="569" y="410" as="targetPoint" />
            <Array as="points">
              <mxPoint x="619" y="340" />
              <mxPoint x="619" y="720" />
            </Array>
          </mxGeometry>
        </mxCell>
        <mxCell id="v4sCi-Z_wBpGrxeXx95t-29" style="edgeStyle=orthogonalEdgeStyle;rounded=0;orthogonalLoop=1;jettySize=auto;html=1;exitX=0.5;exitY=1;exitDx=0;exitDy=0;entryX=0;entryY=0.5;entryDx=0;entryDy=0;fontSize=14;fontColor=#009900;movable=1;resizable=1;rotatable=1;deletable=1;editable=1;connectable=1;" edge="1" parent="WIyWlLk6GJQsqaUBKTNV-1" source="v4sCi-Z_wBpGrxeXx95t-17" target="v4sCi-Z_wBpGrxeXx95t-27">
          <mxGeometry relative="1" as="geometry" />
        </mxCell>
        <mxCell id="v4sCi-Z_wBpGrxeXx95t-28" style="edgeStyle=orthogonalEdgeStyle;rounded=0;orthogonalLoop=1;jettySize=auto;html=1;exitX=0.5;exitY=1;exitDx=0;exitDy=0;entryX=1;entryY=0.5;entryDx=0;entryDy=0;fontSize=14;fontColor=#009900;movable=1;resizable=1;rotatable=1;deletable=1;editable=1;connectable=1;" edge="1" parent="WIyWlLk6GJQsqaUBKTNV-1" source="v4sCi-Z_wBpGrxeXx95t-20" target="v4sCi-Z_wBpGrxeXx95t-27">
          <mxGeometry relative="1" as="geometry" />
        </mxCell>
        <mxCell id="v4sCi-Z_wBpGrxeXx95t-32" value="&lt;font color=&quot;#000000&quot;&gt;&lt;b&gt;&quot;Caesar cipher&quot;&lt;/b&gt;&lt;/font&gt;" style="text;html=1;strokeColor=none;fillColor=none;align=center;verticalAlign=middle;whiteSpace=wrap;rounded=0;fontSize=14;fontColor=#009900;" vertex="1" parent="WIyWlLk6GJQsqaUBKTNV-1">
          <mxGeometry x="174" y="60" width="130" height="30" as="geometry" />
        </mxCell>
      </root>
    </mxGraphModel>
  </diagram>
</mxfile>
